<svg xmlns="http://www.w3.org/2000/svg" viewBox="0 0 64 64" width="64" height="64" role="img" aria-label="Vehicle icon">
  <defs>
    <linearGradient id="g" x1="0" x2="1" y1="0" y2="1">
      <stop offset="0%" stop-color="#ffb380"/>
      <stop offset="100%" stop-color="#ff6b00"/>
    </linearGradient>
  </defs>
  <rect x="2" y="18" width="60" height="20" rx="6" ry="6" fill="url(#g)" opacity="0.15"/>
  <path d="M10 38h44c3 0 5-2 5-5 0-1.8-.9-3.4-2.3-4.3l-8.8-5.6c-1-.6-2.1-1.1-3.2-1.4l-10.2-2.7c-1.3-.3-2.6-.5-4-.5H21c-2.5 0-4.9 1-6.7 2.7l-6.8 6.3C5.6 28.5 5 30 5 31.7V33c0 2.8 2.2 5 5 5Z" fill="none" stroke="#ff6b00" stroke-width="2.5" stroke-linecap="round" stroke-linejoin="round"/>
  <circle cx="18" cy="41" r="6" fill="#1a1a1a" stroke="#ff6b00" stroke-width="2"/>
  <circle cx="46" cy="41" r="6" fill="#1a1a1a" stroke="#ff6b00" stroke-width="2"/>
  <path d="M14 32h12m6 0h18" stroke="#ff6b00" stroke-width="2" stroke-linecap="round" opacity="0.9"/>
</svg>

